<?xml version="1.0" encoding="UTF-8"?>
<svg width="673px" height="270px" viewBox="0 0 673 270" version="1.1" xmlns="http://www.w3.org/2000/svg" xmlns:xlink="http://www.w3.org/1999/xlink">
    <!-- Generator: Sketch 55.2 (78181) - https://sketchapp.com -->
    <title>404</title>
    <desc>Created with Sketch.</desc>
    <g id="Desktop" stroke="none" stroke-width="1" fill="none" fill-rule="evenodd" opacity="0.135393415">
        <g id="404-error" transform="translate(-605.000000, -321.000000)" fill="#536DFE" fill-rule="nonzero">
            <g id="Group-2" transform="translate(600.000000, 297.000000)">
                <path d="M210.812121,202.319777 L210.812121,235.119777 L173.612121,235.119777 L173.612121,289.119777 L138.812121,289.119777 L138.812121,235.119777 L5.21212058,235.119777 L5.21212058,227.519777 L167.612121,27.5197772 L173.612121,27.5197772 L173.612121,202.319777 L210.812121,202.319777 Z M63.6121206,202.319777 L138.812121,202.319777 L138.812121,112.319777 L63.6121206,202.319777 Z M347.417835,293.119777 C272.217835,293.119777 252.617835,232.719777 252.617835,159.119777 C252.617835,84.7197772 272.217835,24.3197772 347.417835,24.3197772 C422.617835,24.3197772 442.217835,84.7197772 442.217835,159.119777 C442.217835,232.719777 422.617835,293.119777 347.417835,293.119777 Z M347.417835,260.319777 C395.417835,260.319777 407.417835,213.519777 407.417835,159.119777 C407.417835,103.919777 395.417835,57.5197772 347.417835,57.5197772 C299.417835,57.5197772 287.817835,103.919777 287.817835,159.119777 C287.817835,213.519777 299.417835,260.319777 347.417835,260.319777 Z M677.223549,202.319777 L677.223549,235.119777 L640.023549,235.119777 L640.023549,289.119777 L605.223549,289.119777 L605.223549,235.119777 L471.623549,235.119777 L471.623549,227.519777 L634.023549,27.5197772 L640.023549,27.5197772 L640.023549,202.319777 L677.223549,202.319777 Z M530.023549,202.319777 L605.223549,202.319777 L605.223549,112.319777 L530.023549,202.319777 Z" id="404"></path>
            </g>
        </g>
    </g>
</svg>