<?xml version="1.0" encoding="UTF-8"?>
<svg width="141px" height="27px" viewBox="0 0 141 27" version="1.1" xmlns="http://www.w3.org/2000/svg" xmlns:xlink="http://www.w3.org/1999/xlink">
    <!-- Generator: Sketch 55.2 (78181) - https://sketchapp.com -->
    <title>Group 17</title>
    <desc>Created with Sketch.</desc>
    <g id="Desktop" stroke="none" stroke-width="1" fill="none" fill-rule="evenodd">
        <g id="homepage_logged-out" transform="translate(-1169.000000, -248.000000)">
            <g id="Group-14" transform="translate(0.000000, 105.000000)">
                <g id="Group-51" transform="translate(746.241981, 112.762926)">
                    <g id="Group-17" transform="translate(423.379902, 30.407853)">
                        <path d="M76.3688489,12 C76.3688489,18.627 70.9958489,24 64.3688489,24 C57.7418489,24 52.3688489,18.627 52.3688489,12 C52.3688489,5.373 57.7418489,0 64.3688489,0 C70.9958489,0 76.3688489,5.373 76.3688489,12 Z" id="Fill-10" fill="#1C2751" opacity="0.820289249"></path>
                        <polygon id="Fill-44" fill="#3F3D56" points="0 26.5837607 140 26.5837607 140 24.5837607 0 24.5837607"></polygon>
                        <polygon id="Fill-46" fill="#3F3D56" points="97.8126911 26.3510961 99.8126911 26.3510961 99.8126911 7.8510961 97.8126911 7.8510961"></polygon>
                        <polygon id="Fill-46" fill="#3F3D56" points="30.2127305 26.1839581 32.2127305 26.1839581 32.2127305 7.68395807 30.2127305 7.68395807"></polygon>
                    </g>
                </g>
            </g>
        </g>
    </g>
</svg>