<?xml version="1.0" encoding="UTF-8"?>
<svg width="769px" height="744px" viewBox="0 0 769 744" version="1.1" xmlns="http://www.w3.org/2000/svg" xmlns:xlink="http://www.w3.org/1999/xlink">
    <!-- Generator: Sketch 55.2 (78181) - https://sketchapp.com -->
    <title>Group 3</title>
    <desc>Created with Sketch.</desc>
    <g id="Mobile" stroke="none" stroke-width="1" fill="none" fill-rule="evenodd" opacity="0.15">
        <g id="Group-3" fill="#536DFE">
            <path d="M768.279607,346.091489 C766.438892,377.477134 775.419536,590.074583 696.589946,627.028924 C617.760356,663.983265 590.678551,607.652884 459.678551,609.652884 C328.678551,611.652884 344.326453,742.22691 221.502502,743.423369 C98.6785509,744.619827 22.2746695,632.282011 2.64037571,507.948097 C-16.9939181,383.614183 80.8642501,406.63625 117.678551,335.652884 C154.492852,264.669518 175.678551,139.652884 210.678551,88.6528842 C245.678551,37.6528842 294.36906,-2.56230615 364.678551,0.652884163 C434.988042,3.86807448 432.000155,84.0297305 505.015185,114.492268 C578.030215,144.954805 652.557689,118.995187 701.643423,208.536584 C750.729157,298.077981 770.120322,314.705845 768.279607,346.091489 Z" id="Fill-1"></path>
        </g>
    </g>
</svg>