<?xml version="1.0" encoding="UTF-8"?>
<svg width="1290px" height="857px" viewBox="0 0 1290 857" version="1.1" xmlns="http://www.w3.org/2000/svg" xmlns:xlink="http://www.w3.org/1999/xlink">
    <!-- Generator: Sketch 55.2 (78181) - https://sketchapp.com -->
    <title>Fill 1</title>
    <desc>Created with Sketch.</desc>
    <g id="Illustrated-pages" stroke="none" stroke-width="1" fill="none" fill-rule="evenodd" opacity="0.656343006">
        <g id="homepage_logged-out" transform="translate(-37.000000, -664.000000)" fill="#536DFE">
            <g id="windturbines" transform="translate(36.148862, 84.466835)">
                <g id="Group-3" transform="translate(0.000000, 579.280000)" opacity="0.15">
                    <path d="M1290.25022,437.579707 C1287.16096,476.626409 1302.23313,741.117687 1169.93389,787.092372 C1037.63466,833.067058 906.168599,704.405239 780.686997,704.405239 C647.676394,704.405239 492.355963,850.256155 385.261579,855.998317 C278.167194,861.740479 38.2345834,793.627708 5.28246513,638.944592 C-27.6696531,484.261477 131.94217,495.881097 193.727391,407.571095 C255.512613,319.261092 213.415114,204.803644 289.415114,108.803644 C365.415114,12.8036439 425.415114,-3.19635612 543.415114,0.803643881 C661.415114,4.80364388 725.874424,111.550162 848.415114,149.448431 C970.955804,187.346701 1096.03482,155.050488 1178.41511,266.448431 C1260.79541,377.846374 1293.33949,398.533005 1290.25022,437.579707 Z" id="Fill-1"></path>
                </g>
            </g>
        </g>
    </g>
</svg>