<?xml version="1.0" encoding="UTF-8"?>
<svg width="454px" height="347px" viewBox="0 0 454 347" version="1.1" xmlns="http://www.w3.org/2000/svg" xmlns:xlink="http://www.w3.org/1999/xlink">
    <!-- Generator: Sketch 55.2 (78181) - https://sketchapp.com -->
    <title>Group 17</title>
    <desc>Created with Sketch.</desc>
    <g id="Illustrated-pages" stroke="none" stroke-width="1" fill="none" fill-rule="evenodd">
        <g id="homepage_logged-out" transform="translate(-743.000000, -112.000000)">
            <g id="windturbines" transform="translate(274.148862, -50.533165)">
                <g id="Group-17" transform="translate(469.041648, 162.779489)">
                    <g id="Group-15">
                        <path d="M226.488152,197.530611 C216.648152,197.280611 209.068152,188.690611 209.328152,178.850611 L213.038152,44.8506106 L214.248152,1.15061061 C214.248152,1.15061061 220.628152,-10.9393894 226.978152,43.2606106 L226.978152,43.4606106 L244.618152,171.980611 C244.902152,173.881611 244.877152,175.816611 244.548152,177.710611 C243.368152,184.190611 239.378152,197.870611 226.488152,197.530611 Z" id="Fill-4" fill="#FBFCFF"></path>
                        <polygon id="Fill-6" fill="#FFFFFF" points="217.018352 231.230511 235.958352 231.230511 235.958352 190.720511 217.018352 190.720511"></polygon>
                        <polygon id="Fill-8" fill="#FFFFFF" points="219.348352 239.390511 233.918352 239.390511 233.918352 221.610511 219.348352 221.610511"></polygon>
                        <path d="M235.958352,202.830311 L235.958352,231.230311 L217.018352,231.230311 L217.018352,203.390311 C223.027352,200.788311 229.806352,200.587311 235.958352,202.830311" id="Fill-10" fill="#536DFE"></path>
                        <path d="M280.548152,293.120311 C275.238152,289.220311 264.698152,279.640311 270.649152,268.200311 C275.189152,259.470311 286.228152,256.410311 294.958152,260.960311 L413.768152,323.040311 L452.518152,343.280311 C452.518152,343.280311 460.578152,354.280311 409.078152,336.280311 L408.888152,336.220311 L285.638152,295.720311 C283.816152,295.126311 282.098152,294.248311 280.548152,293.120311" id="Fill-11" fill="#FBFCFF"></path>
                        <polygon id="Fill-12" fill="#FFFFFF" points="236.221052 261.949911 244.524052 244.926911 280.934052 262.684911 272.631052 279.707911"></polygon>
                        <polygon id="Fill-13" fill="#FFFFFF" points="252.145852 251.238011 245.758852 264.334011 229.778852 256.539011 236.165852 243.444011"></polygon>
                        <path d="M261.748352,274.390311 L236.218352,261.940311 L244.518352,244.940311 L269.518352,257.140311 C269.227352,263.672311 266.446352,269.844311 261.748352,274.390311" id="Fill-15" fill="#536DFE"></path>
                        <path d="M172.428052,293.120311 C177.738052,289.220311 188.278052,279.640311 182.328052,268.200311 C177.788052,259.470311 166.748052,256.410311 158.018052,260.960311 L39.208052,323.040311 L0.458052,343.280311 C0.458052,343.280311 -7.601948,354.280311 43.898052,336.280311 L44.088052,336.220311 L167.338052,295.730311 C169.161052,295.133311 170.879052,294.252311 172.428052,293.120311" id="Fill-16" fill="#FBFCFF"></path>
                        <polygon id="Fill-17" fill="#FFFFFF" points="172.042852 262.681811 208.452852 244.923811 216.755852 261.946811 180.345852 279.704811"></polygon>
                        <polygon id="Fill-18" fill="#FFFFFF" points="216.807952 243.439211 223.194952 256.534211 207.214952 264.329211 200.827952 251.233211"></polygon>
                        <path d="M191.228352,274.390311 L216.758352,261.940311 L208.458352,244.940311 L183.458352,257.140311 C183.749352,263.672311 186.529352,269.844311 191.228352,274.390311" id="Fill-20" fill="#536DFE"></path>
                    </g>
                    <path d="M226.488652,234.290211 C233.325652,234.290211 238.868652,239.833211 238.868652,246.670211 C238.868652,253.507211 233.325652,259.050211 226.488652,259.050211 C219.651652,259.050211 214.108652,253.507211 214.108652,246.670211 C214.108652,239.833211 219.651652,234.290211 226.488652,234.290211" id="Fill-22" fill="#536DFE"></path>
                </g>
            </g>
        </g>
    </g>
</svg>