<?xml version="1.0" encoding="UTF-8"?>
<svg width="594px" height="613px" viewBox="0 0 594 613" version="1.1" xmlns="http://www.w3.org/2000/svg" xmlns:xlink="http://www.w3.org/1999/xlink">
    <!-- Generator: Sketch 55.2 (78181) - https://sketchapp.com -->
    <title>Group 2</title>
    <desc>Created with Sketch.</desc>
    <g id="Desktop" stroke="none" stroke-width="1" fill="none" fill-rule="evenodd" opacity="0.263044085">
        <g id="log-in_welcome-back" transform="translate(-423.000000, -244.000000)">
            <g id="Rectangle-Copy-2" transform="translate(246.000000, 236.000000)">
                <g id="Group-2" transform="translate(177.000000, 8.000000)">
                    <path d="M21.7636393,187.985818 C9.78955775,188.032388 0.0450474082,178.331947 0,166.318551 C-0.0152949073,162.482771 0.981126919,158.712189 2.88732519,155.387122 C30.4281769,108.817555 114.133799,0 297.017432,0 C376.236062,0 445.707087,21.111537 503.419096,62.7136835 C550.919329,96.8646992 577.531838,135.51744 590.219196,154.145267 C596.943497,163.965236 594.458631,177.395899 584.669251,184.140725 C584.612003,184.181085 584.553208,184.221445 584.494413,184.260253 C574.516269,190.967823 561.021252,188.412706 554.168531,178.516673 C531.114672,144.986585 461.179476,43.1544653 297.017432,43.1544653 C136.723487,43.1544653 64.3127079,136.914527 40.6399534,177.119586 C36.7966121,183.928057 29.5617231,188.092928 21.7636393,187.985818" id="Fill-42" fill="#64FFDA"></path>
                    <path d="M389.001036,613 C387.175343,613.022816 385.354296,612.813673 383.581252,612.379895 C250.873963,579.071923 201.32165,444.90896 199.308588,439.331811 L198.998886,438.093994 C197.914929,434.220974 171.280561,342.19647 212.161219,288.284031 C230.898187,263.651624 259.390767,251.103039 297.019555,251.103039 C332.015876,251.103039 357.256586,262.102416 374.599895,284.875773 C388.846185,303.466269 394.575671,326.394548 400.150307,348.548222 C411.76413,394.5597 420.126083,418.728894 468.439588,421.206078 C489.654172,422.290523 503.59076,409.741939 511.48816,399.052403 C532.857595,369.928842 536.574019,322.366607 520.469517,280.537991 C499.719486,226.315711 426.320122,124.222903 296.864704,124.222903 C241.582905,124.222903 190.791784,142.193716 150.065976,175.966451 C116.308463,204.007116 89.5192439,243.51192 76.6666127,284.101169 C52.819562,359.70252 84.0994596,478.526774 84.4091616,479.61122 C87.4488863,491.083105 80.6184096,502.84779 69.1516947,505.888886 L68.9240637,505.947756 C57.3055948,509.015187 45.3774239,502.186279 42.1348445,490.610596 C40.7411856,485.188368 7.2933743,358.463154 34.8568485,271.087822 C64.8979383,176.431213 157.498823,81 296.864704,81 C361.282711,81 422.139146,103.153674 472.930267,144.982291 C512.262415,177.515659 544.471419,221.203324 561.195324,264.89099 C582.564759,320.662478 576.835273,383.250482 546.639332,424.149573 C526.508705,451.415634 497.861274,465.668348 466.116824,464.11914 C383.426401,459.936278 368.560707,401.531136 357.721139,358.927916 C346.571868,315.24025 339.448723,294.171021 296.864704,294.171021 C273.482206,294.171021 257.068003,300.677695 246.847838,314.155805 C232.91125,332.59138 231.827293,361.406649 233.375803,382.320957 C233.391288,382.539395 233.408322,382.757834 233.423807,382.974723 C235.472485,409.58237 243.524736,435.379782 256.976641,458.424251 C278.473053,495.506094 322.07754,552.37597 394.42082,570.549729 C405.968058,573.34605 413.061781,584.979053 410.265173,596.529948 C410.249688,596.598113 410.232654,596.664729 410.21562,596.731345 C407.629609,606.32559 398.934727,612.993381 389.001036,613" id="Fill-44" fill="#50E3D4"></path>
                    <path d="M219.144714,603 C213.123815,603 207.362944,600.54011 203.202487,596.184189 C150.113323,539.797319 120.086216,476.752644 108.787356,397.906138 L108.787356,397.441424 C102.441421,345.238531 111.728155,271.347427 157.233153,220.540225 C190.820175,183.051732 238.02774,164 297.30806,164 C367.422903,164 422.524193,196.993158 456.885109,259.266407 C472.414076,287.903644 482.590789,319.138633 486.912216,351.43472 C487.984834,363.470817 479.103621,374.098831 467.075752,375.17232 C455.284695,376.224124 444.798425,367.69352 443.419345,355.926957 C439.653574,328.922416 430.999885,302.833362 417.880826,278.937759 C391.258854,231.383556 350.706782,207.218419 297.153281,207.218419 C250.874389,207.218419 214.656126,221.314749 189.736722,249.1976 C153.828017,289.317924 146.862966,351.123361 151.815891,392.019759 C161.721741,461.726886 188.188933,517.182778 234.932162,566.752291 C243.058054,575.346405 242.681942,588.906765 234.09326,597.039263 C234.012775,597.116716 233.930742,597.192619 233.84871,597.268522 C229.826006,600.936666 224.58674,602.97831 219.144714,603" id="Fill-46" fill="#64FFDA"></path>
                    <path d="M297,345 C312.463778,345 325,357.536222 325,373 C325,388.463778 312.463778,401 297,401 C281.536222,401 269,388.463778 269,373 C269,357.536222 281.536222,345 297,345" id="Fill-48" fill="#50E3D4"></path>
                </g>
            </g>
        </g>
    </g>
</svg>