<?xml version="1.0" encoding="UTF-8"?>
<svg width="193px" height="199px" viewBox="0 0 193 199" version="1.1" xmlns="http://www.w3.org/2000/svg" xmlns:xlink="http://www.w3.org/1999/xlink">
    <!-- Generator: Sketch 55.2 (78181) - https://sketchapp.com -->
    <title>Group 2</title>
    <desc>Created with Sketch.</desc>
    <g id="Desktop" stroke="none" stroke-width="1" fill="none" fill-rule="evenodd" opacity="0.811848958">
        <g id="log-in_welcome-back" transform="translate(-290.000000, -533.000000)">
            <g id="Rectangle-Copy-2" transform="translate(246.000000, 236.000000)">
                <g id="Group-2" transform="translate(44.000000, 297.000000)">
                    <path d="M7.06136448,61.0514575 C3.17667222,61.0665391 0.0153087532,57.9250282 0.000694244589,54.0344611 C-0.00426780681,52.7922346 0.318996415,51.5711224 0.937414928,50.4942915 C9.87235772,35.4126258 37.0285602,0.171800243 96.3605961,0.171800243 C122.061106,0.171800243 144.599248,7.00882203 163.322471,20.4817767 C178.732737,31.5416649 187.366502,44.0594474 191.482599,50.0921137 C193.664131,53.2723343 192.857978,57.6218867 189.682058,59.8062146 C189.663485,59.8192854 189.644411,59.8323561 189.625336,59.8449242 C186.388176,62.0171868 182.010054,61.1897061 179.78686,57.9848521 C172.30761,47.1260528 149.618879,14.1474771 96.3605961,14.1474771 C44.3572212,14.1474771 20.8653491,44.5118974 13.185314,57.5324021 C11.9384377,59.7373417 9.59125839,61.0861453 7.06136448,61.0514575" id="Fill-42" fill="#BC9EFF"></path>
                    <path d="M126.227349,198.998966 C125.635535,199.006369 125.045226,198.938502 124.470478,198.79774 C81.4522425,187.989213 65.389424,144.452968 64.736872,142.643168 L64.6364793,142.241493 C64.2851052,140.984688 55.6513402,111.122487 68.9031655,93.6277548 C74.9769188,85.634472 84.2130394,81.5624223 96.4107422,81.5624223 C107.755108,81.5624223 115.937106,85.1317498 121.559092,92.521766 C126.177153,98.5544323 128.034416,105.994721 129.841483,113.183648 C133.606206,128.114497 136.316807,135.957466 151.978055,136.761319 C158.854949,137.113224 163.372617,133.041175 165.932629,129.572391 C172.859719,120.121717 174.06443,104.687643 168.844014,91.1141439 C162.117709,73.5188672 138.324659,40.3894749 96.3605459,40.3894749 C78.440464,40.3894749 61.976075,46.2210523 48.7744461,57.180396 C37.831651,66.2796677 29.1476897,79.0990835 24.9813962,92.2704049 C17.2511648,116.803248 27.3908189,155.36204 27.4912116,155.713945 C28.4765651,159.436603 26.2624059,163.254275 22.5453694,164.241119 L22.4715808,164.260223 C18.7053518,165.255612 14.8387302,163.039613 13.7876195,159.283273 C13.3358528,157.523745 2.49345027,116.40107 11.4283931,88.0475385 C21.1664768,57.3312127 51.1838689,26.3635258 96.3605459,26.3635258 C117.24221,26.3635258 136.969359,33.5524531 153.433748,47.1259522 C166.18361,57.6831182 176.624442,71.859884 182.045643,86.0366498 C188.972734,104.134649 187.11547,124.444625 177.32719,137.716491 C170.80167,146.564401 161.515353,151.189446 151.22511,150.686723 C124.420282,149.329373 119.601436,130.376747 116.087695,116.551887 C112.473561,102.375121 110.164531,95.5380991 96.3605459,95.5380991 C88.7809034,95.5380991 83.4600948,97.6495323 80.1471385,102.023215 C75.6294708,108.005609 75.2780966,117.356242 75.7800597,124.142992 C75.7850793,124.213876 75.7906009,124.284759 75.7956205,124.355141 C76.4597177,132.989394 79.0699257,141.360724 83.430479,148.838717 C90.3987304,160.871875 104.533509,179.326304 127.98422,185.223738 C131.727358,186.131151 134.026851,189.906092 133.120306,193.654389 C133.115286,193.676509 133.109765,193.698126 133.104243,193.719743 C132.265965,196.833101 129.447442,198.996818 126.227349,198.998966" id="Fill-44" fill="#A888FF"></path>
                    <path d="M71.0114104,195.781206 C69.0587741,195.781206 67.1904675,194.982883 65.8411907,193.569228 C48.6238572,175.269637 38.8857734,154.809347 35.221443,129.220788 L35.221443,129.069971 C33.1633943,112.128233 36.1751728,88.1478819 50.9328873,71.6590968 C61.8254861,59.492717 77.13536,53.3097368 96.3605459,53.3097368 C119.099473,53.3097368 136.969359,64.0172167 148.112939,84.2271515 C153.149135,93.5209766 156.449542,103.657867 157.851023,114.139122 C158.198883,118.045273 155.318619,121.49445 151.417864,121.842837 C147.593909,122.184185 144.19311,119.415694 143.74586,115.597016 C142.524584,106.83306 139.718109,98.3662131 135.46347,90.6112206 C126.829705,75.1781521 113.678272,67.3356859 96.3103496,67.3356859 C81.3016535,67.3356859 69.5557175,71.9104578 61.474112,80.9594573 C49.8285685,93.979962 47.5697347,114.038075 49.1760165,127.310443 C52.3885802,149.932942 60.9721489,167.930396 76.1314338,184.017506 C78.76674,186.806609 78.644763,191.207439 75.8593698,193.84673 C75.8332678,193.871867 75.8066637,193.8965 75.7800597,193.921133 C74.4754576,195.11158 72.7763126,195.774167 71.0114104,195.781206" id="Fill-46" fill="#BC9EFF"></path>
                    <path d="M96.4610389,112.027437 C101.451054,112.027437 105.496374,116.078875 105.496374,121.076437 C105.496374,126.073998 101.451054,130.125436 96.4610389,130.125436 C91.4710239,130.125436 87.4257035,126.073998 87.4257035,121.076437 C87.4257035,116.078875 91.4710239,112.027437 96.4610389,112.027437" id="Fill-48" fill="#BC9EFF"></path>
                </g>
            </g>
        </g>
    </g>
</svg>