<?xml version="1.0" encoding="UTF-8"?>
<svg width="1251px" height="932px" viewBox="0 0 1251 932" version="1.1" xmlns="http://www.w3.org/2000/svg" xmlns:xlink="http://www.w3.org/1999/xlink">
    <!-- Generator: Sketch 55.2 (78181) - https://sketchapp.com -->
    <title>Group 7</title>
    <desc>Created with Sketch.</desc>
    <g id="Illustrated-pages" stroke="none" stroke-width="1" fill="none" fill-rule="evenodd">
        <g id="404-error" transform="translate(-91.000000, -24.000000)">
            <g id="Group-7" transform="translate(91.385945, 24.582570)">
                <circle id="Oval" fill="#536DFE" cx="414.538899" cy="197.914762" r="2.5"></circle>
                <circle id="Oval" fill="#536DFE" cx="195.328222" cy="63.7859359" r="2.5"></circle>
                <circle id="Oval" fill="#536DFE" cx="503.877008" cy="48.4333654" r="2.5"></circle>
                <circle id="Oval" fill="#536DFE" cx="463.892485" cy="423.436824" r="2.5"></circle>
                <circle id="Oval" fill="#536DFE" cx="694.590314" cy="35.2962135" r="2.5"></circle>
                <circle id="Oval" fill="#536DFE" cx="93.7569826" cy="19.460018" r="2.5"></circle>
                <circle id="Oval" fill="#536DFE" cx="811.169887" cy="127.516922" r="2.5"></circle>
                <circle id="Oval" fill="#64FFDA" cx="121.645294" cy="627.548597" r="2.5"></circle>
                <circle id="Oval" fill="#536DFE" cx="372.237805" cy="45.3230144" r="2.5"></circle>
                <circle id="Oval" fill="#536DFE" cx="693.760824" cy="122.873727" r="2.5"></circle>
                <circle id="Oval" fill="#536DFE" cx="578.165996" cy="230.516741" r="2.5"></circle>
                <circle id="Oval" fill="#2949FA" cx="118.010747" cy="324.806353" r="2.5"></circle>
                <circle id="Oval" fill="#536DFE" cx="2.5" cy="82.134221" r="2.5"></circle>
                <circle id="Oval" fill="#2949FA" cx="290.130391" cy="138.540358" r="2.5"></circle>
                <circle id="Oval" fill="#536DFE" cx="595.273349" cy="81.229505" r="2.5"></circle>
                <circle id="Oval" fill="#64FFDA" cx="491.050359" cy="131.12097" r="2.5"></circle>
                <circle id="Oval" fill="#536DFE" cx="46.1345188" cy="231.665924" r="2.5"></circle>
                <circle id="Oval" fill="#536DFE" cx="18.6198741" cy="571.941105" r="2.5"></circle>
                <circle id="Oval" fill="#536DFE" cx="968.088112" cy="243.956374" r="2.5"></circle>
                <circle id="Oval" fill="#536DFE" cx="750.298399" cy="190.712955" r="2.5"></circle>
                <circle id="Oval" fill="#2949FA" cx="890.8049" cy="753.057176" r="2.5"></circle>
                <circle id="Oval" fill="#536DFE" cx="1248.11609" cy="713.46958" r="2.5"></circle>
                <circle id="Oval" fill="#536DFE" cx="748.457818" cy="928.878959" r="2.5"></circle>
                <circle id="Oval" fill="#536DFE" cx="1073.56985" cy="671.63499" r="2.5"></circle>
                <circle id="Oval" fill="#64FFDA" cx="1024.00229" cy="770.446412" r="2.5"></circle>
                <circle id="Oval" fill="#536DFE" cx="974.318354" cy="154.002352" r="2.5"></circle>
                <circle id="Oval" fill="#64FFDA" cx="838.44198" cy="42.1023407" r="2.5"></circle>
                <circle id="Oval" fill="#2949FA" cx="818.404312" cy="812.054896" r="2.5"></circle>
                <circle id="Oval" fill="#536DFE" cx="949.504003" cy="876.074701" r="2.5"></circle>
                <circle id="Oval" fill="#536DFE" cx="127.675705" cy="749.56223" r="2.5"></circle>
                <circle id="Oval" fill="#536DFE" cx="1131.9682" cy="853.269668" r="2.5"></circle>
                <circle id="Oval" fill="#2949FA" cx="1247.72336" cy="262.171272" r="2.5"></circle>
                <circle id="Oval" fill="#64FFDA" cx="1185.98497" cy="596.864558" r="2.5"></circle>
                <circle id="Oval" fill="#2949FA" cx="861.206519" cy="665.126198" r="2.5"></circle>
                <circle id="Oval" fill="#536DFE" cx="1195.01451" cy="93.0257684" r="2.5"></circle>
                <circle id="Oval" fill="#536DFE" cx="1029.96875" cy="42.1374786" r="2.5"></circle>
                <circle id="Oval" fill="#64FFDA" cx="661.162426" cy="607.38715" r="2.5"></circle>
                <circle id="Oval" fill="#536DFE" cx="966.699722" cy="87.905247" r="2.5"></circle>
                <circle id="Oval" fill="#536DFE" cx="508.732067" cy="793.399911" r="2.5"></circle>
                <circle id="Oval" fill="#536DFE" cx="1044.70306" cy="142.058348" r="2.5"></circle>
                <circle id="Oval" fill="#536DFE" cx="935.199501" cy="2.5" r="2.5"></circle>
                <circle id="Oval" fill="#536DFE" cx="87.4541069" cy="486.578913" r="2.5"></circle>
                <circle id="Oval" fill="#64FFDA" cx="29.0898768" cy="383.323647" r="2.5"></circle>
                <circle id="Oval" fill="#536DFE" cx="899.368796" cy="125.328274" r="2.5"></circle>
                <circle id="Oval" fill="#536DFE" cx="655.750882" cy="821.804634" r="2.5"></circle>
                <circle id="Oval" fill="#2949FA" cx="737.874575" cy="688.477046" r="2.5"></circle>
                <circle id="Oval" fill="#536DFE" cx="591.234166" cy="700.737593" r="2.5"></circle>
                <circle id="Oval" fill="#536DFE" cx="1082.88436" cy="232.791788" r="2.5"></circle>
            </g>
        </g>
    </g>
</svg>