<?xml version="1.0" encoding="utf-8"?>
<!-- Generator: Adobe Illustrator 23.0.4, SVG Export Plug-In . SVG Version: 6.00 Build 0)  -->
<svg version="1.1" id="Layer_1" xmlns="http://www.w3.org/2000/svg" xmlns:xlink="http://www.w3.org/1999/xlink" x="0px" y="0px"
	 viewBox="0 0 375 57" style="enable-background:new 0 0 375 57;" xml:space="preserve">
<style type="text/css">
	.st0{fill:#FFFFFF;}
	.st1{opacity:0.2209;}
	.st2{fill-rule:evenodd;clip-rule:evenodd;fill:url(#Combined-Shape_2_);}
</style>
<title>Combined Shape</title>
<desc>Created with Sketch.</desc>
<g>
	<path class="st0" d="M97,57h278V17.4C361.2,11.1,347.2,8,333,8C218.2,8,187.5,57,97,57z"/>
	<path class="st0" d="M0,57h97c-33.4,0-65.7-5.4-97-16.2V57z"/>
	<path class="st0" d="M104,41C68.2,41,33.5,34.8,0,22.3v18.5C31.3,51.6,63.6,57,97,57c90.5,0,121.2-49,236-49
		c14.2,0,28.2,3.1,42,9.4V5.1C363.4,1.7,351.8,0,340,0C225.2,0,194.5,41,104,41z"/>
	<path class="st0" d="M104,41C68.2,41,33.5,34.8,0,22.3v18.5C31.3,51.6,63.6,57,97,57c90.5,0,121.2-49,236-49
		c14.2,0,28.2,3.1,42,9.4V5.1C363.4,1.7,351.8,0,340,0C225.2,0,194.5,41,104,41z"/>
</g>
<g id="Mobile_1_" class="st1">
	<g id="mobile_occ-details_no-jobs_1_" transform="translate(0.000000, -819.000000)">
		
			<linearGradient id="Combined-Shape_2_" gradientUnits="userSpaceOnUse" x1="-117.7229" y1="1237.0701" x2="-116.6622" y2="1237.0552" gradientTransform="matrix(375 0 0 -57 44132 71360)">
			<stop  offset="0" style="stop-color:#50E3D4"/>
			<stop  offset="1" style="stop-color:#A288FF"/>
		</linearGradient>
		<path id="Combined-Shape_1_" class="st2" d="M0,841.3C33.5,853.8,68.2,860,104,860c90.5,0,121.2-41,236-41c11.8,0,23.4,1.7,35,5.1
			v12.2c-13.8-6.3-27.8-9.4-42-9.4c-114.8,0-145.5,49-236,49c-33.4,0-65.7-5.4-97-16.2V841.3z"/>
	</g>
</g>
</svg>
